# xmcd
#
# Track frame offsets:
#	150
#	19790
#	31230
#	42590
#	61047
#	76555
#	103360
#	113742
#	130080
#	142182
#	179230
#	193667
#
# Disc length: 2961 seconds
# Revision: 3
# Processed by: cddbd v1.5.2PL0 Copyright (c) Steve Scherf et al.
# Submitted via: dBpowerAMP V12.0
#
DISCID=a60b8f0c
DTITLE=Buck Owens and the Buckaroos - Live at Carnegie Hall
DYEAR=1988
DGENRE=Country
TTITLE0=Act Naturally
TTITLE1=Together Again
TTITLE2=Love's Gonna Live Here
TTITLE3=Medley: in the Palm of Your Hand/Cryin' Time/Don't Let Her Know/Only You (Can Break My Heart)
TTITLE4=Medley: I Don't Care (Just as Long as You Love Me)/My Heart Skips a Beat/Gonna Have Love
TTITLE5=Waitin' in Your Welfare Line
TTITLE6=Buckaroo
TTITLE7=The Streets of Laredo
TTITLE8=I've Got a Tiger by the Tail
TTITLE9=Fun 'n' Games With Don and Doyle
TTITLE10=Twist and Shout
TTITLE11=Medley: Under Your Spell Again - Above and Beyond - Excuse Me (I Think I've Got a Heartache) - Foolin' Around - Hello Trouble - Truck Drivin' Man
EXTD=
EXTT0=
EXTT1=
EXTT2=
EXTT3=
EXTT4=
EXTT5=
EXTT6=
EXTT7=
EXTT8=
EXTT9=
EXTT10=
EXTT11=
PLAYORDER=
